<svg width="1582" height="339" viewBox="0 0 1582 339" fill="none" xmlns="http://www.w3.org/2000/svg">
<g clip-path="url(#clip0_711_245)">
<path fill-rule="evenodd" clip-rule="evenodd" d="M515.638 4.34486C412.896 4.3217 345.24 63.9416 345.203 168.349C345.224 272.756 412.83 332.334 515.631 332.357C618.374 332.38 686.03 272.761 686.008 168.353C686.045 63.946 618.439 4.36853 515.638 4.34486ZM18.7769 323.654L179.622 323.66C239.007 323.654 310.586 301.977 310.557 231.809C310.542 193.493 287.367 171.163 251.559 160.777C281.882 151.899 299.912 129.347 299.899 97.4943C299.915 28.8407 232.918 12.9996 176.33 13.0299L18.7489 12.994L18.7769 323.654ZM110.469 247.648L110.462 201.704L179.637 201.726C196.304 201.755 217.155 203.218 217.142 224.705C217.13 246.133 196.312 247.64 179.644 247.67L110.469 247.648ZM176.34 132.17L110.428 132.177L110.453 89.261L176.364 89.2539C191.342 89.2681 207.396 92.7274 207.355 110.72C207.315 128.713 191.317 132.184 176.34 132.17ZM821.11 13.0084L821.105 247.386L970.061 247.405L970.037 323.687L729.41 323.683L729.44 13.0237L821.169 13.0089L821.11 13.0084ZM924.528 89.2612L1026.22 89.2752L1026.22 323.653L1117.94 323.638L1117.95 89.2605L1219.64 89.2745L1219.67 12.9928L924.611 12.98L924.586 89.2617L924.528 89.2612ZM465.126 249.811L598.319 172.945L465.127 96.083L465.126 249.753L465.126 249.811Z" fill="#101014"/>
<path fill-rule="evenodd" clip-rule="evenodd" d="M1383.3 14.1841L1434.59 13.7183L1435.75 145.14L1565.47 144.033L1565.88 191.198L1436.16 192.304L1437.33 324.308L1386.04 324.774L1384.88 192.77L1255.74 193.877L1255.33 146.712L1384.47 145.605L1383.3 14.1841Z" fill="url(#paint0_radial_711_245)"/>
</g>
<defs>
<radialGradient id="paint0_radial_711_245" cx="0" cy="0" r="1" gradientTransform="matrix(558.693 -245.462 -194.772 -558.974 1225.18 357.365)" gradientUnits="userSpaceOnUse">
<stop stop-color="#F7F7F5"/>
<stop offset="0.25" stop-color="#35C7DF"/>
<stop offset="0.409199" stop-color="#7B2FE2"/>
<stop offset="0.597863" stop-color="#C03FD0"/>
<stop offset="0.706731" stop-color="#D62086"/>
<stop offset="0.797333" stop-color="#9D1160"/>
<stop offset="0.870192" stop-color="#891255"/>
<stop offset="1" stop-color="#101014"/>
</radialGradient>
<clipPath id="clip0_711_245">
<rect width="1581.88" height="338.492" fill="white"/>
</clipPath>
</defs>
</svg>
